<svg width="256" height="256" viewBox="0 0 256 256" fill="none" xmlns="http://www.w3.org/2000/svg">
<g filter="url(#filter0_i_30_35)">
<g clip-path="url(#clip0_30_35)">
<rect width="256" height="256" rx="20" fill="#1B1B1B"/>
<rect width="256" height="256" rx="20" fill="url(#paint0_linear_30_35)" fill-opacity="0.35"/>
<g filter="url(#filter1_d_30_35)">
<path d="M85.38 194.864C71.5933 194.864 59.1853 191.981 48.156 186.216C37.252 180.325 28.6667 172.179 22.4 161.776C16.1333 151.373 13 139.592 13 126.432C13 113.272 16.1333 101.491 22.4 91.088C28.6667 80.6853 37.252 72.6013 48.156 66.836C59.1853 60.9453 71.5933 58 85.38 58C97.412 58 108.253 60.1307 117.904 64.392C127.555 68.6533 135.576 74.7947 141.968 82.816L118.28 104.248C109.757 93.9707 99.4173 88.832 87.26 88.832C80.116 88.832 73.724 90.3987 68.084 93.532C62.5693 96.6653 58.2453 101.115 55.112 106.88C52.104 112.52 50.6 119.037 50.6 126.432C50.6 133.827 52.104 140.407 55.112 146.172C58.2453 151.812 62.5693 156.199 68.084 159.332C73.724 162.465 80.116 164.032 87.26 164.032C99.4173 164.032 109.757 158.893 118.28 148.616C130.345 138.333 140.108 113.232 140.108 113.232C140.108 113.232 148.061 83.7486 156.372 73.852C167.527 63.9507 183.193 59 203.372 59C211.017 59 218.161 59.752 224.804 61.256C231.572 62.76 237.337 64.8907 242.1 67.648L231.196 96.224C223.927 91.9627 215.592 89.832 206.192 89.832C196.667 89.832 189.397 91.9 184.384 96.036C179.371 100.172 176.864 106.439 176.864 114.836V119.348H227.436V148.112H176.864V181.732C176.123 196.934 163.494 197.35 141.968 197.232V170.048C135.576 178.069 127.555 184.211 117.904 188.472C108.253 192.733 97.412 194.864 85.38 194.864Z" fill="url(#paint1_linear_30_35)"/>
</g>
</g>
</g>
<defs>
<filter id="filter0_i_30_35" x="0" y="0" width="256" height="260" filterUnits="userSpaceOnUse" color-interpolation-filters="sRGB">
<feFlood flood-opacity="0" result="BackgroundImageFix"/>
<feBlend mode="normal" in="SourceGraphic" in2="BackgroundImageFix" result="shape"/>
<feColorMatrix in="SourceAlpha" type="matrix" values="0 0 0 0 0 0 0 0 0 0 0 0 0 0 0 0 0 0 127 0" result="hardAlpha"/>
<feOffset dy="4"/>
<feGaussianBlur stdDeviation="2"/>
<feComposite in2="hardAlpha" operator="arithmetic" k2="-1" k3="1"/>
<feColorMatrix type="matrix" values="0 0 0 0 0 0 0 0 0 0 0 0 0 0 0 0 0 0 0.25 0"/>
<feBlend mode="normal" in2="shape" result="effect1_innerShadow_30_35"/>
</filter>
<filter id="filter1_d_30_35" x="9" y="58" width="237.1" height="147.244" filterUnits="userSpaceOnUse" color-interpolation-filters="sRGB">
<feFlood flood-opacity="0" result="BackgroundImageFix"/>
<feColorMatrix in="SourceAlpha" type="matrix" values="0 0 0 0 0 0 0 0 0 0 0 0 0 0 0 0 0 0 127 0" result="hardAlpha"/>
<feOffset dy="4"/>
<feGaussianBlur stdDeviation="2"/>
<feComposite in2="hardAlpha" operator="out"/>
<feColorMatrix type="matrix" values="0 0 0 0 0.113721 0 0 0 0 0.113721 0 0 0 0 0.113721 0 0 0 1 0"/>
<feBlend mode="multiply" in2="BackgroundImageFix" result="effect1_dropShadow_30_35"/>
<feBlend mode="normal" in="SourceGraphic" in2="effect1_dropShadow_30_35" result="shape"/>
</filter>
<linearGradient id="paint0_linear_30_35" x1="256" y1="256" x2="0" y2="0" gradientUnits="userSpaceOnUse">
<stop offset="0.18" stop-color="#D9D9D9" stop-opacity="0"/>
<stop offset="1" stop-color="#FBFBFB" stop-opacity="0.5"/>
</linearGradient>
<linearGradient id="paint1_linear_30_35" x1="8.5" y1="4.5" x2="242" y2="254.5" gradientUnits="userSpaceOnUse">
<stop offset="0.275" stop-color="white"/>
<stop offset="0.82" stop-color="#737373"/>
</linearGradient>
<clipPath id="clip0_30_35">
<rect width="256" height="256" rx="20" fill="white"/>
</clipPath>
</defs>
</svg>
